<svg version="1" xmlns="http://www.w3.org/2000/svg" width="666.667" height="666.667" viewBox="0 0 500.000000 500.000000"><path d="M82.4 1.6c.3.9.6 1.8.6 2 0 .2 1.1.4 2.5.4 1.5 0 3.2 1.1 4.6 2.9 1.2 1.6 3.4 3.1 4.9 3.5 1.6.3 4.7 2.3 7 4.5 3.6 3.5 4.1 4.4 3.8 7.8-.3 3.3-.8 4-4.3 5.8-5.6 2.7-15.4 2.4-28.8-.9-6-1.4-11.8-2.6-13-2.5-1.2 0 .7.7 4.2 1.5 3.6.7 7.1 2 7.9 2.8 2 2 .8 4.6-2.1 4.6-1.3 0-3.1.8-4 1.7-1.3 1.5-1.3 2.1-.2 3.6s1.1 2.5.1 5.5-1 4.2.1 6.2c.7 1.4 1.3 3.4 1.3 4.5.1 1.7.4 1.6 2.3-.9 1.2-1.7 2.4-3.9 2.7-5 .9-3.3 4.6-3.2 5.8.1.7 2.2.5 3.6-1.2 6.6-1.9 3.5-2.4 3.8-5.6 3.4-2.4-.2-3.9.1-4.8 1.2-1.2 1.5-1.4 1.5-2.4 0-.9-1.4-1.5-1.4-5.4-.1-3.5 1.2-4.7 1.2-5.9.2-1.9-1.6-1.9-3.9 0-4.6 1.7-.7 2.1-3.4.5-3.4-.5 0-1 .4-1 1 0 .5-.7 1-1.5 1s-1.5.8-1.5 1.8-.7 2.7-1.5 3.9c-1.2 1.7-1.2 2.7-.4 5.3 1 2.6.9 3.5-.4 4.7-1.8 1.8-4.5 1.1-5.4-1.4-.4-1-1.1-2.1-1.7-2.5-.8-.5-.7-1.4.2-2.9.7-1.1 1.2-2.2 1-2.3-3.8-2.2-5.6-2.6-8-1.7-2.2.8-2.7.7-3.2-1.2-.5-2-.6-2-2.4-.4-2.3 2.1-12.1 1.9-14.7-.3-1-.8-2.7-1.9-3.8-2.5-2-1-3.4-4.5-4.1-10.5-.4-3.6-.4-3.6-2.6-3.6-1.8 0-2 .7-2 7.8 0 6.1.5 8.7 2.2 12 1.3 2.4 2.3 6.1 2.3 8.4 0 3.6.2 4 2.1 3.6 2.8-.5 3.8 1.2 3.5 6.4-.1 2.3.3 4.5.9 4.9 1.4.9 1.2 4.7-.4 6.8-1.2 1.6-1.5 1.6-2.3.4-.4-.9-2.4-1.7-4.3-1.9-3.3-.3-3.5-.1-3.8 2.9-.3 3-.1 3.3 2.5 3.3 5.3 0 7.2 4.2 2.8 6.2-1.4.6-2.5 1.7-2.5 2.3 0 .7-.7 1.8-1.5 2.5-2 1.7-2.1 24.6-.1 27.2 1.1 1.6 1.4 1.4 2.9-1.7.9-1.9 2.3-3.5 3.2-3.5.8 0 2.4-2 3.6-4.5 3.7-7.9 8.3-9.1 10.8-2.8.5 1.6 2.2 4.1 3.6 5.8l2.5 3v-2.6c0-1.8.9-3.3 2.7-4.4 2.5-1.7 2.7-1.7 3.9 0 1.1 1.5 1.1 2.1.1 3.3-.8 1.1-.3 1 1.6-.3 2.4-1.5 2.8-2.4 2.5-5.8-.2-2.9.2-4.2 1.4-5 1.4-.9 2.4-.5 5.3 2.3s4.2 3.4 8.3 3.4c3.9.1 5.9.8 10.5 4 3.1 2.1 6.6 4.9 7.8 6.2 2.7 2.9 1.7 4.5-4 6.4-2.2.7-5.4 2.8-7.1 4.5l-3.2 3.3 3.2-.1c2.3-.2 3.6.4 4.4 1.8.6 1.1 1.2 2.2 1.3 2.4.7 1.2 4.7-5.7 4.5-7.6-.3-1.9.2-2.4 2.8-3 2.1-.4 3.5-1.4 4.1-2.9 1.1-3.2 6.1-3.2 9.9-.2 1.5 1.3 3.5 2.8 4.5 3.4 3 1.7 1.2 4.7-2.3 3.9-2-.4-3.3-.1-4.2 1-.7.8-2.2 1.5-3.4 1.5-3.4.1-5.5 2.2-4.9 5.2.7 3.8-1.2 6.5-5.2 7.2-3.9.8-4.5 2.5-1.5 4.4 1.7 1 2 1.9 1.4 4.7-.6 3.5.8 5 2 2 .7-1.8 3.6-2 3.6-.2 0 1.9-2.7 5.3-3.6 4.5-.4-.5-1.2.2-1.8 1.4-1.4 2.7-3.3 3.2-6.9 1.9-1.7-.7-2.7-1.8-2.7-3.1 0-3-2.5-3.5-5-1-1.2 1.2-2.8 1.9-3.6 1.6-.9-.3-1.8.3-2.3 1.7-1.7 4.2-8.1 7.9-12.1 7-.8-.2-2.8-2.4-4.4-4.9-1.9-3-3.1-4.1-3.6-3.3-.5.7-1.8.9-3.6.5-2.4-.5-2.6-.4-1.1.4.9.6 1.5 1.5 1.3 1.9-.3.4.6 1.4 1.9 2.1 1.7.9 2.5 2.2 2.5 4.1 0 3.6-1.7 4.1-8.5 2.3-3.1-.8-6.5-1.2-7.6-.9-2.1.7-2.1.7.1 3 2.7 2.8 2.3 5.9-.8 6.3-1.2.2-2.2.9-2.2 1.7 0 .8.7 1.1 2 .8 2.2-.6 6 2.1 6 4.2 0 2.3-4.6 5.5-8.1 5.6-3 .1-3.1.2-.9.8 3 .8 7.9 9.2 7.9 13.7.1 2.3.7 3.4 2.5 4.2 3.5 1.6 2.4 5.2-1.6 5.2-1.7 0-2.8-.5-2.7-1.3.4-3.2-.3-4.8-2.6-5.7-2.4-.9-2.9-1.9-2.6-4.7.1-.9-1.3-1-5-.6-4.7.6-5.1.5-4.5-1.3.8-2.5-.8-4.9-2.5-3.8-1.2.6-1.2.5 0-.9 1.2-1.5 1.1-1.7-.3-1.7-1.4 0-1.6 3.4-1.6 35.5C0 277.7.2 282 1.5 282c1.9 0 3.7 4.2 2.2 5.2-.6.3-1.6.4-2.4.1-1-.4-1.3 1.2-1.3 7.7v8.1l3.3-.3c3.5-.3 3.7-1.2 1.6-6.5-1.1-2.8-1.1-3.4.5-5.2 1-1.1 2.3-1.8 2.7-1.5.5.3 1.2-.2 1.5-1 .7-1.9 3.4-2.1 5.8-.3 1.7 1.3 1.7 1.5-.8 4.2-3.9 4.2-2.8 11.5 1.7 11.5 2.6 0 5 4.7 5.4 10.8.3 3.9 1.2 7 3.1 10 1.5 2.4 3.4 5.5 4.2 6.8 1.2 2 1.3 2.7.2 4.4-1.1 1.8-1 2.1 1.1 2.9 1.3.5 3.6 2.6 5.2 4.8 1.6 2.1 4.6 5.4 6.6 7.5 2 2 4 4.9 4.3 6.5.4 1.7 2.2 4.5 4.1 6.3 3.8 3.7 4.2 5.1 2 7-1.3 1.1-1.2 1.5.5 3.7 1.1 1.4 2 3.4 2 4.4 0 1 1.1 2.6 2.5 3.5 2.2 1.4 3 1.5 5 .4 2.2-1.2 2.8-.9 7.2 2.7 2.6 2.3 5.7 5 6.7 6.2 1.1 1.1 2.5 2.1 3.3 2.1.8 0 3.1.9 5.3 2 3.2 1.6 4.2 2.8 5.1 6.3.6 2.3 1.2 5.8 1.3 7.7.1 3-.4 3.7-4.3 5.9-3.5 1.9-6.1 2.5-12.8 2.7-6.7.2-9 .7-11.6 2.5-6.5 4.5-10.6 9.1-11.2 12.8-.5 2.6-1.6 4.3-4.3 6.2-2 1.4-5.9 5.9-8.7 10-5.2 7.7-21.6 39.2-24 46l-1.4 3.9H500v-42.5c0-27.1-.4-42.5-1-42.5-.5 0-1.2-1.1-1.6-2.5-.4-1.5-1.3-2.5-2.4-2.5-2 0-4.1-2.3-5.8-6.2-.6-1.6-1.7-2.8-2.4-2.9-.7-.1.3-.5 2.2-.9 2.3-.6 4.7-.4 7.3.5 3.2 1.1 3.6 1.1 2.6-.1-.8-1-.8-1.4 0-1.4s1-21.8.9-82.7l-.3-82.8-2.7.3c-1.6.1-2.8-.1-2.8-.7 0-.5-1.4-1.4-3.1-2-2.8-1-3.4-.8-6.2 2.1-5.6 5.6-10.8 8.8-14.2 8.8-3.6 0-8.5 3.3-8.5 5.7 0 1.1.6 1.4 2.6.9 2.6-.7 2.6-.6 1.9 3.1-.7 3.8-5.8 10.3-8.1 10.3-.6 0-1.5 1.6-1.8 3.5-.5 2.5-1.6 4.2-3.7 5.4-2.8 1.7-7.8 9.9-7.9 12.8 0 .7-.8 1.7-1.7 2.2-1.5.9-1.6 1.2-.3 2 .8.6 1.5 2.9 1.6 5.8l.2 4.8 4.8 1.4c8.5 2.4 13.9 4.9 14.2 6.6.2.9-.7 3.3-2.1 5.3-2.8 4.4-4.1 7.8-4.2 11.1 0 1.7-.7 2.5-2.1 2.7-2.8.5-4.8-2-4.1-4.8.4-1.4 0-2.9-1-4-1.9-2.2-3.3-2.3-3.3-.4 0 2.2-4.9 5.6-8.1 5.6-2.2 0-3.2-.7-4.4-3-.9-1.7-2.2-3-3-3-.8 0-3.2-.9-5.2-2-4.2-2.2-5.9-2.5-6.8-1-.4.6.7 1.5 2.4 2.1 2.9 1 6.1 4.7 6.1 7 0 .6-1.1 2-2.5 3.1s-2.5 2.5-2.5 3.2c0 .7-.9 2.1-2 3.1-2.1 1.9-3 1.6-7.3-2.8-2.1-2-3.7-1.9-4.7.4-.4.8-1.2 2.5-1.9 3.8-2.7 5.1 1.9 6.2 17.7 4.5 4.9-.6 5.2-.8 5.2-3.5 0-3.8 3.3-6.7 7.8-6.7 4.9-.1 6.9.6 7.6 2.5.7 1.7-2 5.3-3.9 5.3-1.4 0-6.1 4.8-5.3 5.5.2.3 2.5.2 5-.1 5-.7 6.8-2.9 6.8-8.2 0-3.3.9-4.6 3.4-5 1.7-.3 1.8-.2.7 1.2-.9 1.1-1.1 2.8-.6 5.2l.6 3.6 3.1-2.8c1.6-1.6 3.4-3.9 3.9-5.1.5-1.3 1.4-2 2.2-1.7 1.6.6.7 6-2 12.3-1.2 3-1.7 3.3-4.3 2.7-2.5-.5-3-.2-3 1.4 0 1.1.7 2 1.5 2 1.8 0 1.9 1.8.4 5.7-1.2 3.1-2 9.9-1.9 15.4 0 2-.6 5.5-1.5 7.8l-1.5 4.2 3.5 1.5c1.9.8 3.7 1.4 4 1.4.2 0 5.2 2.3 10.9 5 5.7 2.8 11.3 5 12.3 5 1.1 0 2.8.7 3.9 1.5 1.8 1.5 1.8 1.5 0 .8-1.3-.4-1.7-.3-1.2.5 1.2 2-1.1 1.3-6.1-1.7-5.5-3.3-9.3-4.7-9.3-3.3 0 1.6-3.5.8-4.2-.9-.4-.9-3.6-3.1-7.3-4.8-10.7-5.1-28.7-10.5-23.5-7.1 1.1.7.5.8-2 .3-1.9-.3-3.7-.9-4-1.3-.3-.3-3.4-1.9-7-3.3-5.9-2.5-5.7-2.6 1.7-1.2 2.2.4 2.2.3-.6-5.3-1.6-3.1-3.2-7.1-3.6-8.7-.3-1.7-2-4.1-3.6-5.4-2.7-2.1-3.3-2.2-5.5-1.1-2.1 1.2-2.7 1.1-4.5-.6-3-2.7-5.9-8.8-5.9-12.4 0-1.7-.6-4.1-1.4-5.3-.9-1.3-1.4-4.7-1.4-8.4 0-4.6-.5-6.9-2-9-1.1-1.5-4-7.1-6.5-12.3-6.9-14.4-7.7-22.6-2.9-28.7 1.7-2 3.9-3.5 6-3.9 1.8-.4 3.5-1 3.8-1.6 1.2-1.8-2.5-5.6-6.3-6.3-4.7-1-6.1-.8-9.4 1.6-2.5 1.8-2.7 1.8-4.3 0-.9-.9-1.6-3.4-1.6-5.4 0-2-.9-5.1-2-6.9-2.5-4.2-2.5-5.8 0-5.8 1.1 0 2 .5 2 1.2 0 .9.3.9 1.2 0 2-2-2.9-23.3-6.2-26.6-1.5-1.5-3.1.6-3.2 4.3-.1 3.6-1.3 4.9-2.2 2.4-.4-.9-.3-1.9.2-2.2.6-.4.4-2.7-.3-5.6-.7-2.7-1.1-5.3-.8-5.8.2-.4.7-4.9 1-10 .4-7.3.9-9.6 2.4-11 2-1.9 2.6-7.2.9-8.2-.8-.5-.7-1.1 0-2.1.7-.7 1-1.9.7-2.6-.2-.7.2-2.6 1-4.2 2-3.8.4-5.5-3.4-3.6-1.6.8-3.2 1.4-3.7 1.5-2.8.1-4.2-17.9-1.6-21 .7-.8 2.5-1.5 4.1-1.5 4.6 0 6.9-6.2 2.7-7.4-2.3-.6-2.3-.6-.3-2.2 1.1-.8 3-1.2 4.2-.9 1.6.4 2.5-.1 3.3-1.5.6-1.1 1.5-1.8 2.1-1.5 1.5 1 1 2.4-1.6 4.7-1.4 1.2-2.5 3-2.5 4s-.4 1.8-.8 1.8c-1.5 0-3.2 6.1-2.1 7.9 1.3 1.9 5.5 4.1 8 4.1 2.2 0 5.3-10 4.6-14.7-.3-1.8-.3-3.3.1-3.3 1.6.1 3.1 1.7 3.7 4.3.4 1.5 1.1 3 1.6 3.3.5.3.9 1.4.9 2.5 0 3.4 4.5 2.4 6.9-1.6 3.7-6.4 7.2-5.7 7.6 1.3.2 3-.1 3.9-1.1 3.5-1.7-.6-1.9 2.3-.3 3.3.6.4.9 1.9.5 3.6-.8 4 1.7 4.7 4.8 1.3 2-2.2 2.3-3.1 1.5-4.6-.5-1.1-1.4-1.9-2-1.9-1.8 0-.4-2.3 1.9-3.1 1.7-.6 2.4-.4 3.2 1.1.6 1.1 1.8 2 2.6 2 1.9 0 7-5.3 7.9-8.1.7-2.2 4.1-4.3 5.5-3.4.6.3 1-.3 1-1.4 0-1.2.7-2.1 1.5-2.1.9 0 1.8-.6 2.1-1.4.3-.8 2.6-2.5 5.2-3.7 5.5-2.8 7.1-4.6 7.2-7.7 0-3.1-1.7-2.8-3.5.7-2.8 5.5-8.1 7.6-11.5 4.6-.9-.8-3.1-1.8-4.8-2.1-2.5-.5-3.2-.3-3.2 1 0 1-2.2-.5-6.2-4.3-3.5-3.2-7.6-7-9.3-8.4-2.5-2.1-2.7-2.7-1.6-4.1 1.1-1.3 1-1.7-1.2-2.5-1.4-.5-3.4-.7-4.5-.4-1.1.2-2.3 0-2.6-.6-.4-.6-2.2-1.1-3.9-1.1-4.5 0-6.1-1.3-5.4-4.2.7-2.8-1.6-4.5-6.8-5-4.4-.4-4.2 2.1.5 7.2 4.4 4.8 5 7.4 2.1 9-4.3 2.3-5.4 1.4-4.9-4 .5-4.7.4-5-1.8-5-1.6 0-2.4-.6-2.4-1.8-.1-.9-.9-2.7-1.9-3.8-1.5-1.8-2.5-2.1-6.3-1.7-3.5.4-4.6.2-5.1-1.1-.8-2.1.1-4.4 2.4-5.6 1.7-1 1.7-1.1-.6-3.4-1.9-1.9-2.4-3.7-2.9-11.2-.4-4.9-.9-10.7-1.1-12.9-.3-2.2-.1-4.7.4-5.5.8-1.2 1.3-1.2 3 .4 1.2 1.1 2.1 2.4 2.1 3 0 .7 1.3 1.7 2.9 2.3 2.8 1 3 .9 4-1.9.7-2 .7-3.6.1-4.8-1.6-2.9-1.2-6.5.9-8.4 1.6-1.5 4.2-1.9 9.1-1.6 4 .3 5.5-.7 5.2-3.4-.2-1.5.1-3.2.6-3.9.6-.7 1.2-2.5 1.4-4.1.1-1.6 1.1-3.4 2.1-4 1.5-.9 2.4-.4 5.8 3.3 3.4 3.7 4 5 3.5 7.4-.5 2.5-.4 2.8.9 1.7.8-.7 1.5-1.8 1.5-2.6 0-.7.9-1.8 1.9-2.4 1.4-.7 1.8-1.7 1.5-3.9-.4-2.3 0-3.2 1.6-4.1 1.3-.7 1.9-1.8 1.6-2.6-.3-.8.1-1.4.9-1.4s1.5.4 1.5 1c0 .5 1 1 2.2 1 2 0 2 .2-1.2 3.5-2.8 2.9-3.1 3.7-2 5 1.1 1.3 1.7 1.1 5-1.5 3.6-2.8 7-3.2 7-.8 0 .6 1.1 2.3 2.5 4 1.9 2.3 2.3 3.4 1.5 4.8-1.4 2.6-1.2 4 .4 3.4 1.6-.6 5.6 4.5 5.6 7.3 0 2.5-3 5.3-5.6 5.3-1.5 0-1.6.2-.5.9 1.4.9 4.4 5.8 5.7 9.3.3 1 1 1.8 1.5 1.8s.9.8.9 1.7c0 1.3.4 1.1 1.3-.7.8-1.7 2.1-2.5 3.7-2.5 2.4 0 4-1.1 4-2.8 0-.4-.7-.7-1.6-.7-1.2 0-1.5-.5-.9-2.3.4-1.2.8-3.8.9-5.7.1-3.1-.2-3.5-2.6-3.8-6-.7-5.9-6.5.2-10 1.6-.9 3-2.5 3-3.4 0-2.8 3.7-4.7 7.1-3.8 2.1.6 2.9.5 2.9-.4 0-.7 1-2.9 2.3-4.7 2.2-3.3 2.4-5.7.6-6.9-.5-.3-1-2.1-1.1-4-.3-3 0-3.5 1.7-3.2 2.6.5 5.6 3.2 4.9 4.4-.3.5.4 2 1.6 3.3l2.2 2.4-2.3 4.5c-1.2 2.5-2.7 4.6-3.3 4.6-.5 0 .1 1.2 1.5 2.6l2.4 2.5-2.1 3.7c-1.4 2.4-3.3 4-5.3 4.7-3.3 1-3.9 2.3-1.9 4.3.9.9.7 1.7-1 3.5-3.6 3.8-2.6 12.8 1.2 11.4.9-.4 1.6-.5 1.6-.3 0 1.4-2.6 7.5-3.9 8.9-1.1 1.3-1.2 2-.4 2.5.7.4 1.3 3 1.5 5.7.2 3.9.6 4.9 1.8 4.6.8-.2 3.1-.4 5-.3 2.9.1 3.8-.5 5.2-2.9 3-5.1 7.6-2.7 6.3 3.2-.7 3.1-.6 3.2 2.1 2.6 1.7-.3 3.3.1 4.3 1 2.3 2.4 4.2-.8 3-5-1.4-4.6-.7-27.8.8-27.3.7.3 1.3-1.2 1.5-4.2.4-3.7-.1-5.9-2.4-10.4-3.8-7.7-8.5-19.8-9-22.8-.2-2.1-.8-2.4-3-2.2-3.3.4-7.3-3.2-6.2-5.6.3-.9.6-2.6.6-3.7-.1-1.1.6-2.7 1.5-3.7s1.1-1.8.5-1.8c-3.3 0-4.5-8.9-1.6-12.1C460.3 0 459.7 0 431.7 0c-19.8 0-28.8.3-29.3 1.1-.3.6-.1 2.9.6 5 1.3 3.7 1.4 3.8 2.7 1.9.8-1.1 2.2-2 3.2-2s2.3-1.2 2.9-2.6c.9-1.8 1.9-2.4 3.4-2.2 2.5.3 3.4 2.5 4.4 10.3l.6 5 1.2-3c.7-1.7 2.1-3.7 3.1-4.5 1.5-1.3 1.9-1.2 3.6.9 1.1 1.3 1.9 3.3 1.9 4.6 0 1.5.7 2.5 2.1 2.8 3.1.8 2.1 4.7-2 7.4-3.6 2.4-8.1 3.1-8.1 1.2 0-.6-.8-.9-1.8-.7-1 .3-2.3-.1-3-.8-1-1.1-1.6-1-3.2.6-2.3 2.3-3.4 2.5-4.7.7-1.6-1.9-2.3-9.5-.9-10.1.6-.2.7-.5.1-.5-.5 0-1.7.4-2.5.9-1.2.7-1.2 1.2-.2 2.2.6.6 1.2 1.6 1.2 2.2 0 .5-.7.1-1.5-1-.8-1-1.5-3-1.5-4.3 0-2.4-.1-2.4-1.4-.6-1.2 1.7-1.1 2.3.8 4.9 1.1 1.7 2.4 3.3 2.9 3.4 2 .9-.8 2.1-3.6 1.5-4-.7-5.8-2.1-5.5-4.1.2-1.1-1.4-2-5.7-3.2l-6-1.7-.1-5.4c-.1-3 .2-6.4.7-7.6.8-2.3.8-2.3-9.6-2.3-8.1 0-10.5.3-10.5 1.3 0 2.3-3 7.5-4.7 8.1-2.4 1-2.8-.1-1.5-3.7 1.9-5.2 1.6-5.7-3-5.7-5.9 0-6.8.8-6.5 6 .2 3.8-.1 4.6-2 5.5-1.4.6-2.3 1.9-2.3 3.2 0 3.1-3.4 4.8-5.4 2.7-.9-.8-2-1.3-2.6-.9-.5.3-1.8 0-2.9-.7-1.5-.9-2.3-.9-3.6.2-1.4 1.2-1.9 1-3.8-1.2-1.2-1.4-3-2.8-3.9-3.1-1-.4-1.8-1.3-1.8-2.2 0-1-1-1.5-3.2-1.5-4.3 0-9.8-3.4-9.8-6 0-1.6-.7-2-3.6-2-3.5 0-3.6.1-2.9 2.7.4 1.6.9 5.6 1.1 9.1l.4 6.2-3.7 1.7c-2.1 1-4 1.8-4.2 2-.2.1-.1.9.3 1.8.5 1.4.8 1.4 3.6 0 3.9-2 6.6-.7 7.5 3.6.4 1.9 1.5 3.3 2.6 3.6 2.9.8.4 3.3-3.2 3.3-2.5 0-2.9.4-2.9 3 0 1.9-.7 3.3-2 4-1.2.6-1.7 1.6-1.3 2.6.6 1.6 3.3 1.5 7.6-.1 1.3-.6 1.7-.2 1.7 1.6 0 2.7-2.7 10.8-4.1 12.6-.6.6-.9 3.1-.8 5.5.1 2.3-.3 5.6-.9 7.3-.6 1.6-1.4 4.3-1.9 6-.9 3.2-4 4.6-5.4 2.4-1.8-2.9-1.8.1-.1 3.2 2.4 4.2 3.5 9.9 2.2 11.9-.8 1.2-1 1-1.1-1l-.1-2.5-.7 2.4c-.6 2.2-.8 2-3.1-2.5-2.7-5.3-8.8-12.6-9.9-12-.4.3-.7-.4-.8-1.5-.2-1.7 0-1.8 2.3-.3 1.3.9 2.4 2 2.4 2.5 0 1.3 4.2 5.9 5.3 5.9.6 0 .2-.9-.8-2s-1.3-2-.7-2c1.4 0 2.3 1.5 2.7 4.6.1 1.4.8 3.1 1.4 3.7.9.9 1.1.8.5-.7-.5-1.3-.4-1.7.4-1.2 1.5.9 1.5-.9.1-3.7-1.3-2.3-1.8-2.9-5.4-7.2-2.1-2.4-2.4-2.6-1.5-.6l1.2 2.3-3.1-1.8c-1.8-1-2.7-2-2.1-2.2.7-.3.4-1.2-.6-2.4-1.6-1.7-1.6-2.1-.4-2.9 1.2-.8 1-.9-.7-.4-2.9.8-3.5-.6-3.4-7.8.5-15.4.3-14.8 4.1-16.8 1.9-1.1 3.5-2.5 3.5-3.2 0-.6.8-2 1.8-3s1.5-2.2 1.2-2.7c-.3-.5-.1-1.9.5-3 .9-1.7.8-2-1.1-2-1.2 0-2.3-.8-2.6-1.9-.8-3.3-2.7-3-5.8 1-3.3 4.2-4.8 5.1-7 4.3-2.2-.9-1.9-8.9.5-14.2 1-2.3 1.5-4.2 1-4.2s-1.9-1-3-2.3c-1.7-1.7-2.1-3.2-1.8-7.2l.3-5L227 .2 181.5 0l-1.3 3c-1.6 3.4-3.6 3-2.9-.6.4-2.2.1-2.4-3.9-2.4-3.8 0-4.4.3-4.4 2 0 2.1 3.5 4.1 5.7 3.3 1.9-.7 2.5 3.4.9 6.9-3.5 7.9-6.7 9.4-8.6 4.2-.8-2.1-1.6-2.4-5.9-2.4-3.1 0-5.3-.5-6.1-1.5-.7-.8-2.3-1.5-3.6-1.5-1.2 0-2.9-.8-3.6-1.8-.7-.9-2.2-1.7-3.3-1.7-1.5 0-2.2-1-2.9-3.8l-1-3.7h-6.2c-5.2 0-6.2.3-6.7 1.9-.2 1.1.4 3.4 1.5 5.2 1.3 2.1 1.6 3.5.9 4.2-1 1-5.5-2.2-12.2-8.8-1.7-1.5-3.8-2.5-5.7-2.5h-3l1.6 3.5c.9 1.9 2 3.5 2.5 3.5.9 0 11.6 9.5 23.4 20.7 3.7 3.5 6.2 6.6 5.8 7.3-.4.6-.1 1.7.5 2.5.7.8 1 2.2.6 3-.7 1.9-4.2 1.9-5 0-.3-.8-1.3-1.5-2.3-1.5-2.2 0-18.6-13-20.9-16.5-.9-1.4-2.5-2.5-3.6-2.5C109.5 20 97 9.3 97 7.3c0-.8-.7-1.6-1.5-1.9C94.7 5 94 4.3 94 3.8 94 1.7 90.4.1 86.1 0c-3.5 0-4.2.3-3.7 1.6zm161.6 5c0 1.7-5.9 5.5-7.2 4.7-.5-.3-.7-1.2-.4-2 .4-.9.2-2.1-.4-2.8-.8-1-.4-1.9 1.7-3.5l2.8-2.1 1.7 2.1c1 1.2 1.8 2.9 1.8 3.6zm-43.2-2.7c2.1 1.3 1 5.4-2 7.1-2.5 1.3-2.9 1.3-4.4-.1-2-2.1-1.2-5 1.8-6.5s3.1-1.5 4.6-.5zm24 7.5c.4 3.6-1 5-4.1 4.2-3.4-.8-4.1-3.2-1.6-5.7 2.7-2.7 5.3-2.1 5.7 1.5zm11 2.8c-.4 1.1-3.9 3.6-7.6 5.4-.7.3-1.9.1-2.7-.6-2.1-1.7-.1-5.3 2.5-4.5 1.1.3 2.8.2 3.7-.4 2.4-1.4 4.6-1.4 4.1.1zm123.8 1.3c.7 1.8-1.3 4.5-3.3 4.5-.8 0-2.3 1-3.2 2.2-1.1 1.3-2.4 1.9-3.4 1.5-3.3-1.3-1.3-6.7 2.4-6.7.9 0 1.9-.7 2.3-1.5.7-2 4.5-1.9 5.2 0zm-202.6 1c.8.9 2.1 1.3 3.5.9 2.2-.6 3.4.2 7.2 4.9 1.3 1.6.7 8.3-.9 10.3-.9 1.2-.1 4.4 1.2 4.4.4 0 1-.7 1.4-1.5 1.3-3.4 2.8-1.4 2.5 3.2-.2 2.7.2 5.8.9 7.1.7 1.2 1.1 2.6.8 3-.8 1.3.7 2.7 3.9 3.7 2.2.8 3.1 1.8 3.3 3.8.3 2.2.8 2.7 2 2.3 1.3-.5 1.2-.3-.2.9-1.1.8-3.5 1.5-5.3 1.5-3.8 0-6.1-2.7-6.6-8-.3-1.9-1-3.6-1.7-3.8-2.5-.9-6-5.5-6-7.8 0-1.4-1.4-3.6-3.5-5.5-1.9-1.8-3.5-3.6-3.5-4 0-.5-1.1-1.9-2.5-3.3-1.9-1.9-2.5-3.6-2.5-6.9 0-6 3.1-8.7 6-5.2zm214.8.4c.3.8-.1 1.2-.9.9-.7-.2-1.5-1-1.7-1.7-.3-.8.1-1.2.9-.9.7.2 1.5 1 1.7 1.7zm68.7-.9c.3.5 1.5 1.5 2.5 2 1.6.8 2.3.6 3.7-1 1-1.1 2.6-2 3.6-2 1.4 0 1.7.5 1.1 2.2-.9 3-.6 2.8-4.3 3.1-2.2.1-3.1.7-3.1 1.9 0 2.6-3.1 2.2-5.8-.7-1.9-2-2.1-2.8-1.2-4.5 1.2-2.2 2.5-2.6 3.5-1zM252 17.8c0 2.3-4.5 6.6-5.9 5.7-1.7-1-1.3-2.9.9-5.3 2.5-2.7 5-2.9 5-.4zm-8.7 6.9c.6 1.6 1.6 3.1 2.1 3.4.5.4.6 1.2.2 1.8-.5.7-1.3.7-2.7-.2-1.7-1-2.2-.9-3.4.7-1.3 1.7-1.5 1.7-2.1.2-.3-.9-.3-3.2 0-5.1.9-4.4 4.1-4.8 5.9-.8zm10.6.6c.5 1.3 1.6 2.9 2.5 3.6.9.7 1.6 2.2 1.6 3.2 0 4.6-6.5 3.4-8.6-1.6-1.7-4.2-1.7-4 .2-5.9 2.1-2.2 3.3-2 4.3.7zm110.9.9c.7.7 1.2 2.5 1.2 4 0 3.2.6 3.4 3 1.3 1.5-1.4 1.8-1.4 3 0 1 1.2.9 2.4-.9 6.6C370 41 369 45 369 47c0 4.1-1.8 6.4-4.4 5.4-1-.4-1.6-.1-1.6.8 0 1.9-3 4.4-5 4.4-1-.1-1.6-1.4-1.8-4.2-.3-3.9 0-4.3 4.8-8 3-2.3 4.8-4.4 4.5-5.2-.3-.8-.5-1.8-.5-2.4 0-1.5-3.6 3.3-4.4 5.9-.9 2.9-4.2 3-5.6.2-.9-1.6-.8-2.6.4-4.4 1.8-2.7 2.1-5.5.6-5.5-2.3 0-.8-4.6 2.3-6.8 3.6-2.5 4.8-2.7 6.5-1zm51.5 1.2c.4 1 0 1.4-1.3 1.3-1.4-.1-1.6-.4-.8-1.4 1.3-1.6 1.5-1.6 2.1.1zM320 28c0 .5-.7 1-1.5 1s-1.5-.5-1.5-1c0-.6.7-1 1.5-1s1.5.4 1.5 1zm113.8.8c.2.7-.6 1.2-1.7 1.2-2.1 0-2.7-1.1-1.4-2.4.9-.9 2.6-.2 3.1 1.2zm-319.5.1c3.6 1.4 17 11.9 18.1 14.2.5 1 1.6 1.9 2.4 1.9.8 0 5.4 2.4 10.1 5.4 4.7 2.9 10 6.1 11.8 7 1.8.9 4.6 3.6 6.2 6 3.4 4.9 3.4 4.9-3.9 8.6-9.1 4.6-21.8 14-27.9 20.7-7.6 8.3-14.1 20-15.5 28.3-.2 1.4-.7 3.2-1 4-.3.8-.7 6.2-1 12-.3 5.8-.8 11.3-1.1 12.2-.7 1.8-3 2.5-3.7 1-.5-1.2-16.6-14.1-20.3-16.3-1.9-1.2-3.8-3.2-4.1-4.5-.4-1.5-1.3-2.4-2.6-2.4-1 0-3-1.1-4.4-2.5-1.4-1.4-3.1-2.5-3.7-2.5-1.9 0-13.4-8.6-14.7-11-.6-1.1-2.1-2-3.3-2-1.2 0-4.1-1.5-6.4-3.3-2.3-1.7-5.4-4-6.8-5-2.7-2-2.7-4.6.1-7.8.8-.8 1.4-2.7 1.4-4 0-1.4.6-3.4 1.4-4.5 1.2-1.5 1.8-1.7 3.3-.8 1 .6 2 2 2.2 3 .2 1 1.2 2.7 2.2 3.7 1 1 1.9 2.6 1.9 3.6s.7 2.4 1.5 3.1c1.8 1.5 3.9.1 6.1-4.2 1.8-3.5 3.7-3.5 7.1-.2 3.4 3.4 9.2 4 11.1 1.3.7-1.1 2.5-2 4-2l2.7-.2-2.8-.4c-2.9-.5-7.7-6.3-7.7-9.5 0-1-1.6-2.8-3.5-4-7.8-5.1-3.9-10.7 4.4-6.3 2.6 1.3 2.8 1.3 2.6-.3-.1-.9-.4-2.5-.8-3.5-1.6-4-1.6-5-.2-7.7.8-1.6 2.5-3.5 3.6-4.1 2.2-1.1 3.8-.5 13.2 4.8 1.9 1.1 2.2 1 2.5-.8.2-1.1-.4-2.9-1.3-3.9s-1.5-2.9-1.3-4.2c.2-1.9 1-2.3 4.6-2.6 2.3-.2 4.2-.8 4.2-1.3 0-1.3-4.4-2.9-8-2.9-1.6 0-3.2-.5-3.5-1-.4-.6-1.2-.5-2.1.4-2 2.1-6.8.6-7.2-2.2-.2-1.2.3-2.4 1-2.7.9-.4 1.3-1.7 1-4l-.4-3.5 6.3-.1c3.5 0 8.9-.8 11.9-1.9 6.7-2.2 7.2-2.2 10.3-1.1zm73.6.5c2.2 2.6-1.9 6.9-4.9 5.1-1.1-.7-1.4-4.8-.3-5.8 1.1-1.2 4-.8 5.2.7zM314 35c1.3 2.4.5 4.1-1.5 3.3-1.6-.6-2.1-5.3-.5-5.3.5 0 1.4.9 2 2zm-115.6 1.4c.8 1.4 2.8 3.7 4.3 5.2l2.7 2.7 3.2-3.9c1.8-2.1 3.5-3.6 3.7-3.4.2.3.9 1.4 1.5 2.5.5 1.1 3.2 2.6 5.9 3.5 4.7 1.5 4.8 1.6 4.7 5.6-.1 6.5-.8 7.4-5.7 7.4-3.5 0-4.8-.5-6.8-2.8-2.4-2.7-2.4-2.7-2.7-.5-.2 1.6-1.4 2.6-4.2 3.4-2.1.7-4.5.9-5.4.6-2-.8-3.2-5.6-1.8-7.7.6-1 .7-2.2.1-3.1-.5-.9-.9-1-.9-.2 0 1.6-3.8 2.7-5.4 1.4-.6-.5-2.1-.8-3.3-.5-3 .8-3.6-.9-1.8-5.3 1.1-2.7 2.6-4.3 5.3-5.5 4.9-2.1 4.7-2.2 6.6.6zm70 6.9c-.1 11.2-3.2 13-7.9 4.4-1.8-3.4-1.8-3.7-.2-5.5.9-1 1.7-2.5 1.7-3.3 0-2.2 2.2-4 4.5-3.7 1.8.3 2 1 1.9 8.1zm14.1-3.7c0 1-.6 1.9-1.2 1.8-.7-.1-2.2-.2-3.3-.3-2.4-.1-3.8-3-2-4.1 2.1-1.3 6.5.4 6.5 2.6zm49.2 4c.4 1.3-2.3 4.4-3.8 4.4-1.3 0-2.2-2.7-1.5-4.6.7-1.7 4.7-1.6 5.3.2zm15.3-1.2c0 .3-.4.8-1 1.1-.5.3-1 .1-1-.4 0-.6.5-1.1 1-1.1.6 0 1 .2 1 .4zm-70.3 1.7c1.5 1.5-1 6.9-3.2 6.9-2.1 0-2.6-1.5-1.4-4.9 1.1-3.2 2.7-3.9 4.6-2zm-93.6 7.6c-1 .4-1.1.7-.1 1.3.7.4.9 1.3.5 1.9-.5.9-1.1.7-2-.6-1.3-1.8-.4-3.4 2-3.2.6 0 .4.3-.4.6zm150.3 5.4c-.6 1.1 2.1 4.1 2.9 3.3.3-.4 1-.3 1.6 0 1.3.8-.7 5.6-2.3 5.6-.6 0 0 .7 1.2 1.6 1.2.8 2.2 2.3 2.2 3.2 0 1.1-1.1.4-3.5-2.2-4.2-4.6-6.1-4.4-9 .8-1.9 3.4-6 6.4-7.1 5.3-.2-.2.6-3.5 1.7-7.3 1.2-3.8 2.3-7.6 2.6-8.4.3-1.2.6-1.2 1.2-.1.7 1 1.1.8 1.6-.9.6-1.8.9-2 1.6-.9.7 1.1.9 1.1.9-.3 0-.9.6-1.8 1.3-2.1 1.5-.5 3.9 1.2 3.1 2.4zM469.5 55c-.4.6-.1 1.9.6 2.8.7.9.9 1.4.5 1-.5-.4-1.4-.4-2 .1-.6.5-2.6 1.2-4.3 1.6-3.2.6-3.4.5-3.7-2.7-.1-.6 1.7-1.7 3.9-2.4 5.2-1.6 5.7-1.6 5-.4zM242.4 66c.4 0 2.7 1.4 5.1 3 2.5 1.7 6.3 3.9 8.7 4.9 2.3.9 3.7 2 3.2 2.4-.6.3-3.6-.7-6.7-2.4-7.3-3.8-7.5-1.9-.3 2.1 3 1.7 5.7 3.7 6 4.5.3.8 1.2 1.5 1.9 1.5.8 0 2.2.9 3.2 2s1.3 2 .7 2c-.6 0-1.4-.5-1.7-1-.3-.6-1.3-1-2.2-1-.8 0-3.3-1.8-5.4-4-3.6-3.7-6.9-5.5-5.3-2.8.4.7.3.8-.5.4-.6-.4-.9-1-.7-1.4.2-.4-.9-.7-2.4-.8-1.6-.1-3.6-.9-4.5-1.8-1-.9-2.5-1.4-3.4-1.1-.9.2-2.9-.6-4.6-2-2.9-2.3-2.9-2.4-.5-1.9 1.4.3 3.2.8 4 1.1.8.3 2.5.7 3.8.9 1.3.1 3 .8 3.8 1.5.8.6 1.4.7 1.4.2 0-.6-2-2.7-4.5-4.7-2.5-2.1-4.5-4.3-4.5-4.9 0-.6 1-.1 2.3 1.1 1.3 1.2 2.7 2.2 3.1 2.2zm-8.4 1.2c0 .6-.6.5-1.5-.2-.8-.7-1.5-1.4-1.5-1.6 0-.2.7-.1 1.5.2.8.4 1.5 1.1 1.5 1.6zm82.1 4c.8 1.8.7 3.2 0 4.7-1 1.8-.9 2.1 1 1.8 3-.3 4.2 4 2.2 8.1-1.3 2.8-1.3 3.3.1 5.4 1.8 2.5 2.2 6.8.6 6.8-.5 0-1 .5-1 1.1 0 .6.9.8 2 .4 1.5-.5 2.4.2 4 2.7 2.3 3.9 2.5 4.8.7 4.8-1.5 0-10.8-10-11.9-12.8-.4-.9-.7-3.3-.8-5.2 0-3-.2-3.2-1.1-1.7-.6 1-1.2 3.5-1.3 5.5-.3 4.3-1.4 7.2-2.8 7.2-.6 0-.5-.6.2-1.5.7-.8.8-1.5.3-1.5-3.7 0-4.5-15.3-1.2-21.5 3.1-5.8 7.3-10.5 7.7-8.5.2.8.8 2.7 1.3 4.2zM245.5 77c.3.6-.1.7-.9.4-1.8-.7-2.1-1.4-.7-1.4.6 0 1.3.4 1.6 1zm28 1.5c4 2 7.4 5.2 7.5 6.9 0 .5-.8.2-1.9-.8-1.6-1.5-1.9-1.5-3.1-.1-1 1.2-1 1.8.1 3.2.8 1-.8-.1-3.5-2.5-2.7-2.3-5.2-4.2-5.6-4.2-.4 0-1.1-.7-1.4-1.6-.3-.8-.2-1.3.2-1.1.4.2 2.4 1.2 4.5 2.2 2.4 1.1 3.6 2.3 3.3 3.1-.6 1.5.6 1.9 1.8.7.3-.4-1.3-2.4-3.6-4.6-4.6-4.1-4.5-4.2 1.7-1.2zM242 81.6c0 .2-1.3-.2-3-1.1-1.6-.9-3-1.8-3-2.1 0-.2 1.4.2 3 1.1 1.7.9 3 1.8 3 2.1zm7.5.4c.3.5.2 1-.4 1-.5 0-1.3-.5-1.6-1-.3-.6-.2-1 .4-1 .5 0 1.3.4 1.6 1zm14.7 9.5c3.9 3.7 6.6 6.6 6 6.4-.6-.2-3.7-2.9-6.9-5.9-3.2-3-7.4-6.8-9.3-8.4l-3.5-2.8 3.3 1.9c1.8 1.1 6.5 5 10.4 8.8zm-18.1-7.8c1.3 1.7 1.3 1.7-.6.3-1.1-.8-2.2-1.6-2.4-1.7-.2-.2 0-.3.6-.3s1.7.8 2.4 1.7zM266 83c0 .5-.2 1-.4 1-.3 0-.8-.5-1.1-1-.3-.6-.1-1 .4-1 .6 0 1.1.4 1.1 1zm-13 3.2c0 .6-.6.5-1.5-.2-.8-.7-1.5-1.4-1.5-1.6 0-.2.7-.1 1.5.2.8.4 1.5 1.1 1.5 1.6zm-5.9 2.4c.9 1.1.2.9-1.8-.6-1.8-1.3-3.3-2.5-3.3-2.7 0-.8 3.8 1.7 5.1 3.3zm34 1.1c1.7 2.7 2.3 4 1.3 3.1-2-1.7-5.9-7.8-5-7.8.2 0 1.9 2.1 3.7 4.7zm10.2 1.1c1.9 4.8 2.2 7.6.7 6.7-1.1-.7-.4 3.9.9 6 1.8 3.1 0 9.5-2.8 9.5-.6 0-1.1.7-1.1 1.5s.4 1.5 1 1.5c1.4 0 4.2 5.9 3.4 7.2-.5.7.1.9 2 .4 1.6-.4 2.5-.3 2.2.2-.3.5.4 1.9 1.5 3 1.1 1.2 1.5 2.2.8 2.2-.8 0-.8.4.1 1.5.7.8 1.7 1.5 2.3 1.5.5 0 2 1.1 3.3 2.5 1.3 1.4 2.1 2.5 1.8 2.5-.3 0 .4 1.2 1.5 2.6 1.1 1.5 1.8 3.1 1.4 3.7-.4.6 0 .8 1 .4s2.1.3 3.1 1.9c1 1.4 1.2 2.4.6 2.4s-.8.5-.4 1.1c.3.6 0 1.5-.7 2-1 .6-1.1.9-.1.9.6 0 1.2.6 1.2 1.3 0 .7.9 1.8 2 2.5 1.3.8 2 .8 2 .2 0-.6.6-.5 1.4.2.8.7 1.1 1.5.7 1.8-1.7 1.2-1.9 3.9-.3 5.2 1.5 1.2 1.6 1.1.3-.5-2.1-2.6.2-2 2.9.8 2.6 2.8 5.1 3.5 2.8.7-2.7-3.1-3.1-4.2-1.1-3.5 1.6.6 1.6.5.4-1-.9-1.1-1-1.7-.2-1.7.6 0 1.2.4 1.2 1 .1.5.2 1.4.3 1.9 0 .6.7 1.6 1.4 2.2.6.7 1.2 3.2 1.2 5.5 0 2.4.5 4.6 1 4.9.6.3 1 1.7 1 3 0 2.3 1.6 4.2 2.6 3.2.3-.2.7-2.2 1.1-4.3.3-2.2 1.4-6.5 2.5-9.7 2.1-5.7 4.3-7.4 5.4-4 .3 1 1.1 2.8 1.6 4 .8 1.7.7 3.1-.6 5.8-1.7 3.5-1.5 11.5.3 11.5.4 0 2-1.4 3.6-3 1.6-1.7 3.4-3 3.9-3 .6 0 2.8 1.5 4.9 3.3l3.8 3.2-2.6 3.5c-1.6 2.2-3.5 3.5-5 3.5-1.2.1-3 .7-3.8 1.4-1.2.9-2.1 1-3.6.2-3.9-2.2-9 1.6-6.1 4.5.6.6 1.3 2.4 1.6 4 .3 1.6 1.4 4.9 2.5 7.4 3.5 7.8 3.7 9.1 2.4 21-.4 4.1-.8 8.4-.9 9.5-.1 1.1-.4 2.4-.7 3-.4.5-1 3-1.4 5.5-.8 5-4.2 13-5.5 13-.5 0-1.2.9-1.5 2.1-.4 1.2-1.3 1.8-2 1.5-1.9-.7-2 .2-1.7 10.3.3 8.8.4 8.9 3.2 10.1 2.3 1 3.2 2.3 4.5 6.5 3 10.3 2.3 11.4-5.9 9.5l-3.9-.9.6 7.3c.4 4.1 1.2 8.6 1.8 10.2.7 1.6 1.3 4.4 1.5 6.2.2 1.9.7 3.9 1.2 4.5.5.7 1.5 2.9 2.2 5 1.7 5.4 12.5 16.6 19.5 20.2 6.3 3.3 9.5 6 9.5 7.8 0 2.2-5 11.9-8.7 17.1-10.8 14.8-20.1 22.7-40 34-12.9 7.2-30 12.2-38.7 11.2-2.6-.3-4.8-.1-5.1.5-.4.5-1.4.7-2.3.5-1-.3-4.3-.6-7.4-.7-3.2-.1-5.8-.6-5.8-1.1 0-.4.5-.8 1-.8.6 0 1-.5 1-1.1 0-.5-.5-.7-1.1-.3-.6.4-3.3.8-6 .9-3.9.2-4.9-.1-5-1.4 0-1-.2-1.1-.6-.4-.5 1.5-2.3 1.7-2.3.4 0-.5.9-1.3 2-1.6 2.6-.8 2.6-2.2 0-3-1.2-.4-2-1.5-2-2.8.1-2 .2-2 1.3-.5.9 1.1 1.8 1.4 2.7.8 1.2-.7 1.2-1-.3-1.6-2.9-1.1-1.9-2.1 2-1.8 2 .1 4.5-.2 5.6-.7 1.4-.8 2.3-.7 3.6.5 1 .9 2.3 1.6 2.9 1.6.7 0 1.2.7 1.2 1.5 0 1.2-.4 1.3-1.8.6-1.3-.7-1.9-.6-1.9.2 0 .7 1.1 1.3 2.4 1.3 1.3.1 2.3-.4 2.3-1 0-.7 1.6-1.9 3.5-2.6 2-.8 3.4-1.9 3.2-2.5-.4-.9 1.6-3.6 2.8-3.5 2.1.1 2.5-.1 2-1-.3-.6-.2-1 .4-1 .6 0 .8-.7.5-1.5-.4-.9 0-1.5 1-1.5.9 0 1.6-.7 1.6-1.6 0-.8-.5-1.2-1.1-.8-.7.4-1-.2-.8-1.7.2-1.3 0-3-.4-3.7-.5-.7-.3-1.2.7-1.2.9 0 1.5-.3 1.5-.8-.4-2.2.5-3.3 4.9-5.8 6-3.4 5.9-3.3 4.2-4.4-1.1-.7-1.1-1.2-.2-2.3.7-.7.9-1.6.6-1.9-.3-.3 1.3-1.9 3.6-3.4 2.2-1.6 4.8-3.5 5.8-4.2 1.5-1.2 1.5-1.2-.4-.3-3.3 1.6-11.8.9-13.9-1.1-1-1-1.4-1.8-.8-1.8.6 0 1.4-1.2 1.7-2.6.4-1.4 1.7-3.6 2.9-4.9 4.7-5 6.4-7 6.6-7.8 0-.4 1-1.6 2.1-2.7 2.3-2.3 2.7-5 .7-5-1.4 0-4.7 3.5-4.7 5 0 .6-.7 1-1.6 1-.8 0-2.7 1.3-4 3-1.4 1.6-3.9 3.9-5.5 5l-2.9 2.1.6-3c.4-2 .2-3.1-.4-3.1-.7 0-.9-.7-.5-1.7.7-1.7.5-1.7-2 0l-2.8 1.8.6-2.8c.3-1.5.3-2.3 0-1.7-.4.8-1.7.7-4.7-.3-2.3-.8-4.7-1.2-5.4-.9-.7.3-1.8-.2-2.5-1-.8-1-2.1-1.3-3.7-.9-1.3.3-4.5.8-7 1.1-2.6.2-4.9.9-5 1.5-.3.6-.8.6-1.6 0-2.1-1.7-6.6-2.1-6.6-.6 0 .9-.6 1.2-1.7.8-1-.4-1.4-.2-.9.5 1 1.7-1.3 2.5-3 1.1-.9-.7-1.3-2.1-1.1-3.1.3-1 0-2.1-.5-2.5-.6-.3-.8-.1-.4.5.3.6.2 1.3-.3 1.6-.5.4-1.2-.3-1.6-1.4-.8-2.4-1.8-2.5-3.9-.4-1.2 1.1-2 1.3-3.3.5-1.4-.8-1.5-1-.3-1.1 1.2 0 1.3-.2.1-.9-3.5-2.2.9-4.6 13-7.1 3.5-.7 6.9-1.7 7.5-2.1.6-.5 3.2-1.2 5.8-1.5 2.5-.4 4.6-1.1 4.6-1.5 0-.5.7-.9 1.6-.9.8 0 1.3-.4 1-.9-.4-.5 0-1.1.6-1.4 1-.3 1-.8-.2-2.2-.8-.9-1.3-3-1.2-4.6.4-3.1-1.5-5.8-3.6-5.1-.6.2-1.2-.1-1.2-.7s.4-1.1.8-1.1 1.6-1.3 2.5-3c1.5-2.5 1.6-2.9.2-2.4-.8.3-1.5 1.1-1.5 1.8 0 .6-.6.4-1.3-.6-.9-1.1-2.2-1.4-4.1-1.1-2 .4-2.4.8-1.4 1.4.8.5.8.9.2.9-.6 0-1.8-.8-2.5-1.8-.7-.9-1-1.4-.5-1 .5.4 2.3-.3 4-1.6 3.9-2.9 11.1-5.3 15.1-5.1 1.7.1 4-.2 5.2-.6 3.1-1.1 8.3 0 8.3 1.7 0 1.4 1.2 1.8 3.9 1.5.7-.2 1 .2.6.8-.3.7.3 1.1 1.5 1.1s1.8.4 1.5 1c-.3.5.1 1 1 1 1.3 0 1.5.6 1 3-.6 2.6-.3 3.1 1.8 3.9 2.4.9 6.7.5 6.7-.7 0-1.9-2.9-8-4.7-10-1.3-1.4-2.3-3.1-2.3-3.8 0-.8-.6-1.4-1.2-1.4-.8 0-.9-.3-.3-.8 1.4-1 1.6-6.2.2-6.2-.8 0-.7-.4.2-.9 1.2-.8.5-1.9-3.3-5.6-2.6-2.6-4.5-4.9-4.2-5.2.3-.3 1.2.2 2.1 1.1.9.9 2.2 1.6 2.9 1.6.7 0 2.5 1 4 2.1 2.9 2.3 3.5 2.2 4.1-.9.2-1.2-.3-2.3-1.2-2.6-.8-.4-1.3-1.3-.9-2.1.3-.8.1-1.5-.4-1.5s-2.9-1.9-5.3-4.3c-4.9-4.7-9.5-8.1-11.5-8.4-.8-.1-2.1-.8-3-1.6-3.2-2.7-10.2-4.6-10.2-2.7 0 .5-.7 1-1.5 1s-1.4-.3-1.3-.8c.2-.4-.1-.9-.7-1.2-.5-.3-1.1.7-1.3 2.1-.2 2.1.1 2.6 2 2.5 1.6-.1 2.3.5 2.3 1.9 0 1.9 3.4 4.5 6 4.5 2 0 9 6.1 8.7 7.6-.2.8.5 1.5 1.5 1.5 1.6.1 1.6.2.1.6-1.1.3-1.5 1.2-1.2 2.9.3 1.6-.1 2.7-1.1 3-.8.4-1.5 1.2-1.5 1.9 0 .8-1.1 2.2-2.4 3.2-1.8 1.5-3.8 1.9-9.2 1.7-3.8-.1-8.2-.5-9.8-.9-1.7-.5-5-.3-7.6.4-6.8 1.7-14.3 2.4-13.5 1.1.3-.5 1.9-1 3.5-1 1.7 0 4-1 5.6-2.5 1.5-1.4 3-2.5 3.5-2.5 1.7 0 2-4.2.4-6-1.8-2-1.3-6 .8-6 .7 0 2.5-1.4 4-3.2 2.1-2.4 2.5-3.3 1.5-3.9-3.8-2.4-9.3.2-12.8 6.2-1.4 2.3-3.2 4.5-4 4.7-1.3.4-1.3.3-.2-1 .9-1.2 1-1.8.2-2.3-.6-.4-.8-1.6-.4-2.7.7-2.4-.9-3.8-4.8-3.8-1.5 0-2.9-.4-3.2-.9-.3-.5-2-1.1-3.8-1.5-9.6-1.8-9.8-1.8-9.8-.2s-3.8 5.6-5.3 5.6c-1 0-.5-5.9 1.2-12.3.6-2.5.6-3.7-.1-3.5-1 .4-2 2.1-5.4 9.1-1 2-2.3 3.7-2.8 3.7s-.6.3-.3.6c.4.4-1.8 3.1-4.8 6.1-3 3-5.5 5.9-5.5 6.4s-.7.9-1.6.9c-1 0-1.4-.5-1-1.5.5-1.3.2-1.3-2.5.1-1.8.9-2.9 2.1-2.5 2.9.2.7-.2 1.9-1.1 2.6-1.7 1.5-8.5 2.1-7.7.7.3-.4 0-.8-.7-.8s-2-.7-3-1.6c-1.6-1.5-1.7-1.4-1.2.8.6 2.2.5 2.2-1.4.6-2.4-2.2-3.3-2.3-3.3-.2 0 1.4-.3 1.4-1.6.3-1.3-1-1.7-1-2.4.1-.5.8-.6 1.8-.4 2.2.3.4 0 .8-.5.8-.6 0-1.1-.7-1.1-1.5 0-1.8-1.6-2-2.4-.3-.3.7-.3.2 0-1.2.7-2.5.7-2.5-1.5-.6-2.3 2.1-2.9 4.8-.8 4.1.8-.4 1.3.7 1.4 3 .1 1.9-.3 3.5-.8 3.5s-.9-.5-.9-1c0-1.5-7-8.3-7.7-7.6-.4.3.1 1.4 1 2.4 1 1 2.8 5.5 4.1 10 1.4 4.5 3.4 10.2 4.6 12.8 1.9 4.5 1.9 4.6.1 3-1.8-1.6-2-1.6-5.7 1.8-2.2 2-4.3 3.6-4.7 3.6-.4 0-1.9 1.2-3.2 2.6-2.2 2.4-2.6 2.5-4 1-.9-.9-2.1-1.4-2.6-1.1-.5.4-.9.1-.9-.4 0-.6-.6-1.1-1.4-1.1-1.4 0-11.8-13.1-13-16.4-1.3-3.7.5-8.7 3.8-10.6 1.7-1 3.7-2.4 4.5-3.1 1.6-1.5 9-5.7 11.3-6.5 1.9-.7 2.8-4.1 1.6-6.4-.9-1.8-4.8-19.5-4.8-21.7 0-2.4 3.3-12.9 3.7-11.7.2.6-.3 3.8-1.1 7.1-.8 3.6-1 6.6-.5 7.4.7 1.2.9 1.1.9-.1 0-.8 1.1.7 2.4 3.5l2.4 5 .1-7.3c.1-4.1-.6-13.1-1.5-20-.9-7-1.5-18.3-1.5-25.2.1-6.9.2-19.4.3-27.8.1-8.3.5-15.2.8-15.2.3 0 .4-1.7.2-3.8-.4-4.4 2.1-11 4.6-11.9.9-.4 2.3-1.3 3-2 1.2-1.2 6.5-1.1 13.5.3 2.1.4 3.4 0 4.9-1.5l1.9-2.2-2.8.6-2.8.5 3-1.4c3.7-1.9 5.7-2 7.3-.4 1 1 1.5 1 2.2-.2.5-.8 1-1.1 1-.6 0 .5.7.3 1.5-.4s2.4-1 3.5-.7c1.1.3 2 .2 2-.3 0-.4.9-1 2-1.3 1.1-.3 1.8-.1 1.5.4-.3.5 2 .9 5.2.9s8.6.2 12 .4c4.4.2 6.4-.1 6.7-1.1.3-.7 1.2-1.3 1.9-1.3.8 0 2.2-.9 3.2-2s2.4-2 3.2-2c.7 0 1.3-.4 1.3-.9 0-.6 1.3-1.8 3-2.7 2.1-1.3 2.6-2 1.7-2.6-.8-.5-.4-.8 1-.8 1.2 0 4.4-1 7-2.1 5.1-2.3 7.6-3.3 10.6-4.3 1-.3 1.5-1 1.2-1.6-.4-.7.2-.7 1.8-.1 1.4.6 2.7.8 2.9.5.5-.4 8.3-1.7 10.8-1.7.8 0 1.8-.5 2.2-1 .3-.6 1.5-1.1 2.7-1.2 1.1-.1 4.2-1.2 6.9-2.6l4.8-2.4-7.1-7.1c-3.8-3.9-8.6-7.9-10.5-8.9-1.9-1-3-2-2.4-2.2.6-.2 4.1 1.5 7.7 3.7 3.7 2.2 6.9 4 7.2 4 1.4 0 .2-1.8-2-3-2.7-1.4-3.5-3.6-1-2.6 2.1.8-.6-3.3-6.7-10.3-2.6-3-4.8-6-4.8-6.5 0-.6 1.3.3 2.8 2.1 7.4 8.6 11.6 12.4 18.7 16.8 3.3 2.1 7 4.8 8.3 5.8 1.3 1.3 2.2 1.6 2.2.8 0-.7.5-.9 1-.6.6.3 1 .1 1-.5s1-2.4 2.2-4c2-2.7 2-3.1.5-4.7-1.5-1.8-1.7-2.2-1.7-4.3 0-.6-.5-.9-1.1-.8-.6.2-1.4-.3-1.7-1.1-.3-.9 0-1.1.8-.6.9.6.9.3.1-1.2-.6-1.1-.8-2.3-.5-2.6.3-.3 0-1.6-.7-2.9l-1.2-2.3 2.7 2.5 2.7 2.5-1-2.8c-.6-1.6-1.1-3.1-1.1-3.5 0-1.4 1.8 1.6 3.3 5.6zM34.7 88c-.1 1.1-.7 2-1.4 2s-1.3-.9-1.3-2 .6-2 1.4-2c.9 0 1.4.9 1.3 2zm215.8-.2c-.3.3-1.1 0-1.8-.7-.9-1-.8-1.1.6-.5 1 .3 1.5.9 1.2 1.2zm22.4.6c.9 1 .8 1.6-.4 2.6-.8.7-1.5 1.1-1.6.9-1-4.5-.1-6 2-3.5zm5 3c3.6 1.9 10.1 9.1 10.1 11.3 0 1.5-.4 1.4-2.4-.7-3.2-3.4-6.5-6-7.4-6-1.4 0-5.3-4.6-4.5-5.3.9-.9 1-.9 4.2.7zM253 93.5c1.3 1.4 2.1 2.5 1.8 2.5-.2 0-1.5-1.1-2.8-2.5-1.3-1.4-2.1-2.5-1.8-2.5.2 0 1.5 1.1 2.8 2.5zm20.5 3.3c-.3.3-1.8-.7-3.3-2.3l-2.7-2.8 3.3 2.3c1.8 1.2 3.1 2.5 2.7 2.8zm-22.9 1.9c-.7.7-3.9-1.3-6.1-3.8-1.7-1.9-1.4-1.8 2.3.6 2.3 1.5 4 3 3.8 3.2zM279 100c0 .5-.2 1-.4 1-.3 0-.8-.5-1.1-1-.3-.6-.1-1 .4-1 .6 0 1.1.4 1.1 1zm1.2 5c4.9 4.3 5 4.4 5.9 2.9.5-.8.9-1 .9-.4 0 .5-.4 1.6-.9 2.3-1.1 1.8-8.1-3-10.6-7.3l-1.7-3 2.4 2c1.2 1.1 3.1 2.7 4 3.5zm-17.8-1.1c-.2.3-1.2-.3-2.2-1.3-1.6-1.7-1.6-1.8.5-.5 1.2.7 2 1.5 1.7 1.8zm58.5 4.3c6.1 6 6.3 6.3 5.7 10.2-.6 3.3-2.3 6.6-6.3 11.5-.6.8-3.2-3.4-3.3-5.2 0-.9-.4-1.7-.8-1.7-.5 0-.9-.6-1-1.3-.3-2.7-2.8-11.6-3.5-12.3-.4-.4-.7-2.2-.7-4.1 0-5 2.5-4.3 9.9 2.9zm-64.8.4c.9 1.1.2.9-1.8-.6-1.8-1.3-3.3-2.5-3.3-2.7 0-.8 3.8 1.7 5.1 3.3zm106.9 8.9c.7.9 2 1.3 2.8 1 1.8-.7 4.1 1.2 5.3 4.2.6 1.7 1.6 2.3 3.8 2.3 4.2 0 5.6 2.1 4.1 6.4-.6 2-1.6 3.8-2.1 4.1-.5.3-.6-.1-.2-1 .6-1.7-1.1-3.5-3.5-3.5-.7 0-1.8 1.1-2.4 2.5-1.8 3.9-5.6 3-8.4-2-1.3-2.2-2.3-5-2.4-6.2 0-1.2-.4-2.5-1-2.8-1.1-.7-1.4-4.8-.3-5.8 1.1-1.2 3-.8 4.3.8zm-23.8 8.1c1.7.9 4.1 1.4 5.5 1.1 1.6-.3 2.7.1 3.3 1.3 1.2 2.2-3 8.1-7.6 10.9-3.2 1.9-3.2 1.9-5.2-.2-1.1-1.2-2.7-3.6-3.5-5.3-.9-1.7-2.3-3.4-3.2-3.7-2.4-1-1.7-3.4 1.3-4.5 3.9-1.5 5.9-1.4 9.4.4zM220 126c1.3.8 1.3 1-.2 1-.9 0-2-.5-2.3-1-.8-1.3.5-1.3 2.5 0zm110.7 19.2c2.6 2.5 2.8 3.6 1 6.9-2.5 4.9-2.7 5-4.5 3.2-1.3-1.3-1.4-1.7-.3-2.1 1.1-.4 1.1-.6.1-1.2-.7-.5-1.4-1.7-1.5-2.7 0-1-.4-2.4-.9-3.1-2.1-3.4 2.7-4.3 6.1-1zm80.9 6.5c-1 1-1.9-.5-1-1.8.6-1.1.8-1.1 1.2 0 .2.7.1 1.5-.2 1.8zm-92.6-.3c0 .3-.4.8-1 1.1-.5.3-1 .1-1-.4 0-.6.5-1.1 1-1.1.6 0 1 .2 1 .4zm54.3 2.5c-.4.4-1.1 1-1.4 1.4-.4.5-.6-.3-.5-1.6.1-2 .4-2.3 1.4-1.5.7.6.9 1.4.5 1.7zm-278.3.5c0 .3-.4.8-1 1.1-.5.3-1 .1-1-.4 0-.6.5-1.1 1-1.1.6 0 1 .2 1 .4zm-7.6 4.9c.9 2.4 2.5 4.6 3.8 5.2 3.5 1.5 2.8 4.5-2.1 8.2-5.7 4.4-7.5 4-7.9-1.6-.4-4.8.6-6 4.8-6.2 1.4 0 1.9-.3 1.3-.6-.7-.2-1.3-1.3-1.3-2.3 0-1.3-.6-1.7-1.8-1.3-2.2.5-4.6-2.1-3.8-4.2.3-.8 1.6-1.5 2.9-1.5 1.9 0 2.8.9 4.1 4.3zm12.2 12.1c.8 1.4 1.4 3.3 1.3 4.3-.2 1 .3 2.8 1 4.1.7 1.3 1 3 .7 3.8-.3.7.3 1.8 1.4 2.4 2.7 1.4 2.5 4-.5 7.3-2.5 2.6-5.5 3.6-5.5 1.8 0-.5-1.8-2.8-4-5.1s-4-4.8-4-5.6c0-.8 1.2-2.6 2.6-3.9 2.3-2.1 2.6-3.1 2.1-6.4-.3-2.2-.2-4.2.1-4.5 1.2-1.3 3.2-.5 4.8 1.8zm-44.4 23.1c1.6 3.5-.3 7.5-3.5 7.5-2 0-2.4-.5-2.4-2.8 0-1.5-.4-3.7-.8-5-.7-2-.4-2.2 2.4-2.2 2.4 0 3.4.6 4.3 2.5zm58.6 1.7c.7.7 1.2 2 1.2 3 0 1.1.7 1.8 2 1.8s2-.7 2-2c0-3.9 1.9-1.9 4.3 4.7 3.2 8.6 4.1 11.6 3.9 12.5-.1.5.3.8.8.8.6 0 1 .6 1 1.4 0 .7.7 2.6 1.5 4.2 1.3 2.6 1.3 3-.8 5.3-1.2 1.3-1.7 2.1-1.1 1.8 1.2-.7 3.7 1.6 4 3.7.1.6.5 2 .9 3.1.6 1.8.5 1.8-.7.4-.7-.9-2.4-2.1-3.7-2.9l-2.4-1.2.7 6.8c.6 6.3.6 6.7-.8 4.9-.9-1.1-1.6-2.5-1.6-3.1 0-2.8-9.5-3.8-23.5-2.4-6 .6-13.5 1.3-16.5 1.6-5.6.5-7.5 1.1-14.4 4.7-2.2 1.1-5.4 2.1-7.1 2.3-2.8.2-3.3-.1-3.3-1.9.1-1.2-.5-3.6-1.3-5.4-1.1-2.6-1.1-3.6 0-5.6.8-1.5 1-3.4.6-4.8l-.8-2.3-1.4 2.7c-1.6 3.2-5.7 3.7-7.4.8-.8-1.1-1.9-1.6-3.1-1.3-2.4.6-5.1-1.7-4.5-4 .3-1-.2-2.2-1-2.7-2.3-1.3-.9-3.8 3.1-5.8 4.4-2.1 6.8-.5 6.4 4-.3 2.7 0 2.9 3.4 3.3 2.6.2 3.7-.1 3.5-.9-.1-.7.7-1.2 1.8-1.2 1.5 0 2 .7 2 2.7-.1 1.6.3 2.8.7 2.8 1.6 0 4.1-5.2 4.2-9 .2-2.6 1-4.8 2.7-6.6 2.1-2.2 2.9-2.5 6.4-1.9 8 1.2 10.5 1 10.5-1.1 0-1.3.5-1.2 2.7.6 3.2 2.5 3.8 1.6 2.4-3.5-.7-2.6-.6-4.4.1-6.1 1.6-3.4 7-3.3 10.4.1 2.2 2.2 2.5 2.3 3.1.7.9-2.7 4.5-6.2 6.3-6.2.9 0 2.1.5 2.8 1.2zm-50 3c-.2 1.3-.9 2.3-1.7 2.3-.7 0-1.7-1-2.2-2.3-.7-1.9-.5-2.2 1.7-2.2 2.1 0 2.5.4 2.2 2.2zm-29.7 17c4.4 4.7 6.2 7.6 5.4 8.8-1.1 1.7-3.9 1.1-5.4-1.2-1.2-1.9-1.5-2-2.5-.6-2.2 3-7.6 2.5-7.6-.8 0-1.3 5.8-9.3 6.8-9.4.2 0 1.7 1.5 3.3 3.2zm30.4 4.6c-.3.3-1.1 0-1.8-.7-.9-1-.8-1.1.6-.5 1 .3 1.5.9 1.2 1.2zM41 244c0 .5-.5 1-1.1 1-.5 0-.7-.5-.4-1 .3-.6.8-1 1.1-1 .2 0 .4.4.4 1zm-12.8 5.5c.6 2.8-1.2 3.4-3.2 1-1-1.2-1-1.8 0-3 1.6-1.9 2.6-1.2 3.2 2zm30.3-1.5c0 .9-1.1 1.6-2.7 1.8-2.3.3-2.8-.1-2.8-1.8s.5-2.1 2.8-1.8c1.6.2 2.7.9 2.7 1.8zm144.2 36.6c1.1 2.3 1 2.4-.9 1.8-1.1-.3-1.8-.2-1.5.3.3.5.2 1.5-.4 2.3-.6 1.1-.9 1.1-.9.2 0-1.4-2.9 0-6.8 3.3-1.3 1.1-2.5 1.9-2.8 1.7-1.4-.8-2.6.2-3.5 2.8-.6 1.6-1.5 3-2.1 3-.6 0-.8.7-.4 1.5.3.8.1 1.5-.4 1.5-1.3 0-1.3-2.7 0-3.5.6-.4.8-1 .5-1.5-.3-.5.5-1.9 1.7-3.3 1.3-1.3 3-3.2 3.9-4.3 3.2-3.8 8.2-7.5 9.6-7 .7.3 1.3.1 1.3-.4 0-1.9 1.5-1 2.7 1.6zM276 283c0 .5-.4 1-1 1-.5 0-1-.5-1-1 0-.6.5-1 1-1 .6 0 1 .4 1 1zm186 17c0 .5-.4 1-1 1-.5 0-1-.5-1-1 0-.6.5-1 1-1 .6 0 1 .4 1 1zm-260 21c.9 1.8.8 2-1.5 2-1.4 0-2.5-.5-2.5-1.1 0-.6-.7-.9-1.5-.5-.8.3-1.5.1-1.5-.4 0-.8 2-1.6 4.7-1.9.7 0 1.7.8 2.3 1.9zm-45.5 1.5c1.4 1.3 2.5 2.9 2.5 3.6 0 .7 1.1 2.7 2.5 4.5 2.6 3.4 3.2 5 1.5 3.9-3.6-2.2 5.1 8.8 12.5 16 2.3 2.2 4.7 5.2 5.3 6.7 1 2.5.9 2.8-.8 2.8-1.3 0-2-.7-2-2 0-1.1-.4-2-.9-2-1.2 0-2.3 2.9-1.5 4.1.3.5-.4 2.2-1.5 3.8-2.3 3.2-1.6 4.6 2.9 5.3 2.2.3 1.7.8-3.5 3.4-3.3 1.7-8.1 4.2-10.6 5.7l-4.6 2.7-.1-3.7c-.1-2-.7-4-1.4-4.5-.7-.4-.8-.8-.3-.8.6 0 .2-.7-.8-1.4-1-.8-1.8-1.7-1.8-2 .3-2-.1-2.6-1.4-2.6-.8 0-1.5-.9-1.5-2 0-2-.6-2.3-5-2.1-2.3.1-9-4.8-9-6.6 0-.5-2.5-1.9-5.4-3.1-3-1.3-5.7-3-6-3.8-.3-.8-1.2-1.4-2.1-1.4-1.7 0-2.1-1.6-.4-2.2.6-.2 1.2-1.9 1.3-3.7.1-1.9 1-3.7 1.9-4.3.9-.5 1.7-1.6 1.7-2.3 0-1.8 1-1.8 3.3-.1 1 .8 2.6 1.2 3.7.9 1-.3 2.9.2 4.2 1.1 3.4 2.4 8.2 2 11.7-.9 2.2-1.9 3.6-2.4 5.5-1.9 3.2.8 3.4-.9.5-5.1-5.4-8-5.6-11.3-.4-6zm-31.1 6.1c.4.9.4 1.9.1 2.2-.9.9-5.6-1.8-5-2.8 1-1.6 4.2-1.2 4.9.6zm3.6 2.3c0 1.2-2 2.5-2.7 1.8-.7-.7.6-2.7 1.8-2.7.5 0 .9.4.9.9zm354.4 1.3c-.5.7-.2.9.8.6 1.1-.5 1.5.1 1.4 2.2-.2 3.7-1.5 5-5.3 5.3-2 .1-2.9.6-2.5 1.5.6 1.7-1.8 6.2-3.4 6.2-2.9 0-2.4-2.4 2.6-11.5.6-1.1 2.3-2.8 3.8-3.7 3.4-2 3.5-2.1 2.6-.6zM123 335.1c.6 1.1.6 2 .1 2.3-1.2.8-4.1-2.1-4.1-3.9 0-1.9 2.8-.8 4 1.6zm106 8.9c0 .5-.7 1-1.6 1-.8 0-1.2-.5-.9-1 .3-.6 1-1 1.6-1 .5 0 .9.4.9 1zm-7.3 2.2c-.3.8-.6.5-.6-.6-.1-1.1.2-1.7.5-1.3.3.3.4 1.2.1 1.9zM76 347.4c0 .2-1.6 1.3-3.5 2.5-3.8 2.2-4.5 1.8-1.8-1.1 1.4-1.5 5.3-2.6 5.3-1.4zm151 .6c0 .5-.2 1-.4 1-.3 0-.8-.5-1.1-1-.3-.6-.1-1 .4-1 .6 0 1.1.4 1.1 1zm64.5 2c-.3.5-1.1 1-1.6 1-.6 0-.7-.5-.4-1 .3-.6 1.1-1 1.6-1 .6 0 .7.4.4 1zM81 354.5c.7.8 1.9 1.5 2.6 1.5 1.2 0 1.2.5-.1 3-1.8 3.5-2 9.1-.3 10.8 1.7 1.7 3.8 1.5 3.8-.3 0-1.7 2.1-2 3.6-.6.8.9 5.5 1.4 9.7 1.2 2.9-.2 1.9-3-1.9-5.3-3-1.8-3.5-2.5-3.2-5.2.3-2.7.7-3.1 3.5-3.4 4.4-.4 7.1 1.2 8.1 5.1.7 2.7.5 3.6-1.5 5.6-2.4 2.5-3 5.5-1.3 6.6 1.7 1.1 1.1 4.3-1.2 5.9-2.8 2-7.8 2.1-10.3.3-2.1-1.6-1.3-3.7 1.5-3.7 1 0 2.1-.4 2.4-.9.8-1.2-3.9-2-5.6-1-2.9 1.9-7 .9-10.4-2.5-2.9-2.9-3.4-4.1-3.4-8.1 0-2.5-.5-5.5-1-6.6-.6-1.1-.8-2.4-.5-2.9.9-1.5 4.1-1.2 5.5.5zm294.4 2.4c5.9 3.6 8 6.1 5.4 6.1-.7 0-2.4-1-3.8-2.3-1.4-1.2-3.7-2.8-5.2-3.6-2.5-1.3-4.7-4.2-3-4 .4 0 3.4 1.7 6.6 3.8zm17.6 6.4c0 .5.9 2.2 2.1 3.8 3 4.2 1 3.6-3.3-1.1-4.4-4.7-4.9-6.5-1.3-4.8 1.4.6 2.5 1.5 2.5 2.1zM186.4 373c1.4 5.8 2.9 11.6 3.2 13 .4 1.4.4 2.2 0 1.9-.3-.3-2.1-6.5-4-13.8-1.9-7.3-3-12.9-2.6-12.5.5.5 2 5.6 3.4 11.4zM77 371.5c0 1.5-.6 1.1-2.5-1.7-1.4-2-2.5-4.3-2.5-5 .1-2.1 5 4.5 5 6.7zm331.4-3.4c1.9.7 3.8 2.5 4.8 4.5 2.1 4.1.1 3.7-3.1-.6-1.2-1.7-2.8-3-3.6-3-.7 0-1.7-.5-2-1-.8-1.3.1-1.3 3.9.1zM437 379c1.3.8 1.3 1-.2 1-.9 0-2-.5-2.3-1-.8-1.3.5-1.3 2.5 0zm-281.5 2.9c-1.2 1-8.2 3.4-7.2 2.5.4-.4 1.7-1.3 2.9-2 2.7-1.4 5.7-1.8 4.3-.5zm35.2 9.3c-.3.8-.6.5-.6-.6-.1-1.1.2-1.7.5-1.3.3.3.4 1.2.1 1.9zm-75.9 5c1.8 1.5 3.2 2.9 3.2 3.2 0 .6-12 7-18.5 9.9l-4 1.7 2.6-2.2c1.4-1.3 3.4-2.8 4.3-3.3 1.1-.6 2.2-3.2 2.8-6.5 1.4-7.8 3.2-8.3 9.6-2.8zm78.1 1.3c0 .5-.4.3-.9-.5s-.9-2.2-.9-3c0-1.6 1.7 1.6 1.8 3.5zm295.6 7.5c.3.5.1 1-.4 1-.6 0-1.1-.5-1.1-1 0-.6.2-1 .4-1 .3 0 .8.4 1.1 1zm-244.1 4.9c.3.5-.1 1.1-.9 1.4-.9.4-1.2.1-.8-.9.6-1.6 1-1.7 1.7-.5z"/><path d="M115.5 97c-1 1.1-1.4 2-.9 2 .5 0 1.5-.9 2.2-2 .7-1.1 1.1-2 .9-2-.2 0-1.2.9-2.2 2zM103.1 97.2c.1 3.1 1.4 4.7 2.9 3.8 1.1-.7 1.2-1.4.4-2.7-1.3-2.2-3.4-2.9-3.3-1.1zM269.4 103.9c.3.5 2.3 1.9 4.3 3l3.8 2.1-3.5-3c-3.3-2.9-5.7-4-4.6-2.1zM323.7 167.7c-1 .9-.9 3.3.1 3.3.4 0 .8-.9.8-2 0-2.3 0-2.2-.9-1.3zM259.6 184.8c-.3.6-2.8 1-5.6 1-2.7.1-5.8.6-7 1.2-1.1.6-2.4.9-2.9.6-.8-.5-4.7 1-9.4 3.5-1.3.7-2.3.7-3.1-.1-1-.8-1.2-.4-.8 1.6.3 1.9.1 2.5-.7 2-.6-.4-1.1-.2-1.1.3 0 .6-.3 1-.7 1-4-.6-4.4 2.5-.8 6 1.4 1.3 2.5 2.7 2.5 3.3 0 .5.5.6 1.2.2.7-.5.9-.2.5.9s-.2 1.4.7 1.1c1-.4 1.2.9.9 5.9-.3 4.8-.1 6.6 1.1 7.6.8.7 1.2 1.9 1 2.6-.9 2.1 10.2 7.4 15.6 7.5 1.4 0 3.1.4 3.9.9.8.5 2.1.5 3 .1.9-.5 3.9-1.4 6.6-2 7.3-1.6 10.5-3.2 10.5-5.3 0-1.5-.7-1.8-3.2-1.7-5.2.3-6.8.1-6.8-1 0-.6.9-1 2-1 2.3 0 5.8-3.1 5.3-4.6-.6-1.9 9.7-3.7 14.7-2.5 3.3.7 4.6.7 5.2-.2.4-.7-.5-1.6-2.5-2.3-1.8-.6-5.4-1.9-8.2-2.9-2.7-.9-7-1.9-9.5-2.2-2.5-.2-5.6-.7-7-1-2.4-.6-2.3-.6 1-1.4 4.6-1 10.3-.1 16.8 2.8 7.2 3.1 9.7 3 4.8-.3-4.9-3.3-11.5-5.4-17.4-5.4-3.5 0-4.5-.4-4.9-1.9-.3-1.3-1.1-1.8-2.1-1.4-1.2.4-1.1.1.3-1 1.3-1 3-1.3 4.9-1 2.5.5 2.8.3 2.3-1.1-.4-1-.2-1.6.6-1.5.6.1 2-.1 3-.6 1-.4 2.9-.3 4.3.4 1.9.8 2.4.8 1.8-.1-.5-.8-.2-.9 1-.5 1 .4 1.5.3 1.1-.3-.8-1.3.1-1.3 2.7.1 1.5.8 2.3.8 3.2-.2.8-.9.8-1-.1-.5-1.2.7-5.2-1.1-6.5-2.9-.4-.6-3-.9-5.7-.8-2.8.1-5.2-.1-5.5-.6-.3-.4.9-.5 2.7-.3 2.5.3 2.9.2 2-.8-1.4-1.5-14.8-2.6-15.7-1.2zm-3.2 31.2c-.6.5-2.4-2.1-2.4-3.4 0-.6.6-.1 1.4 1 .8 1 1.2 2.1 1 2.4zM152.3 190.4c-.6.8-.8 1.9-.3 2.7 1 1.6 1.5 1.2 2.4-1.9.8-2.4-.3-2.9-2.1-.8zM154.1 196.3c-.5 1.2-2.7 4.2-4.8 6.7-4.6 5.2-8.5 14.1-6.5 14.8 1 .3 1 .7.1 1.8-.6.7-.8 2.2-.4 3.1.4 1 .8 2.9 1 4.3.4 2.9 2.3 8 2.4 6.4.1-.7 1.8.6 4 2.7 3.5 3.6 4.1 3.8 6.8 2.9 2-.7 3.8-.8 5.6-.1 3.1 1.2 3.7 2.6.8 1.6-1.1-.3-2.2-.1-2.6.5-.3.5-.1 1 .6 1 .8 0 .8.5-.2 1.6-1.2 1.4-1.1 1.6.6 1.2 1.1-.2 3.1.1 4.5.8 1.4.6 3.7 1 5.3.9 1.9-.2 2.7.1 2.7 1.2 0 1.3.2 1.3 1.7.2 1-.8 1.4-.9 1-.2-1.1 1.7.9 2.5 2.2.9.7-.8 2.8-1.4 4.8-1.4 1.9 0 3.9-.5 4.2-1.1.5-.7 1.7-.8 4.1-.1 1.8.5 3.6.7 3.9.5.2-.3-.1-.5-.7-.5-3.1 0 0-4.9 4-6.3 1.2-.4 1.5-.2 1.1 1-.3.8 0 1.9.8 2.4 1.1.7.9.9-.6.9-1.2 0-1.6.3-.9.8.7.4 1.4 1.6 1.6 2.7l.5 2 .8-2c.4-1.1 2.3-3.4 4.1-5.1 3.1-2.8 3.3-3.5 3.7-10.9.4-7.1-.9-15.4-3.1-19-.3-.5-.6-2.1-.7-3.5 0-1.4-.7-3.5-1.5-4.8-1.6-2.4-9.6-6.6-11-5.7-.5.3-1.1.2-1.4-.3-.2-.4-2.3-.9-4.6-1-2.2-.2-5.1-.7-6.3-1.1-1.2-.5-3.6-.8-5.4-.7-1.7 0-3-.1-2.8-.4.2-.3-3.9-.6-9.2-.7-8.8-.1-9.5 0-10.2 2zm17.6 17.3c-.3.3-1.2.4-1.9.1-.8-.3-.5-.6.6-.6 1.1-.1 1.7.2 1.3.5zm9.3 2.5c0 .5-.4.7-1 .4-.5-.3-1 0-1 .8s-.8 1.7-1.7 2c-1 .3-3.5 1.2-5.7 2.2-3.4 1.4-3.8 1.4-3.3.1.4-.9-.1-2-1.1-2.5-.9-.6-1.2-1.1-.5-1.1.6 0 1.5.4 1.8 1 .3.5 1.1 1 1.7 1 .7 0 .7-.5-.1-1.4-1-1.1-.6-1.6 1.6-2.4 3.7-1.4 9.3-1.5 9.3-.1zm-14.7 5.9c-.3 1.1-.9 1.8-1.3 1.5-.5-.3-1.1.1-1.3.7-.4.9-.6.8-.6-.3-.1-1.5 1.7-3.9 3-3.9.4 0 .5.9.2 2zM200 198c0 .6.7 1 1.5 1s1.5-.2 1.5-.4-.7-.6-1.5-1c-.8-.3-1.5-.1-1.5.4zM331.5 201c-1.7 1.8-1.6 2.1 3.1 7.7 7.3 8.8 8.6 9.6 2.8 1.8-1.2-1.7-2.5-4.6-2.9-6.5-.7-3.3-.7-3.4 1.1-2s1.8 1.4 0-.8c-2.3-2.6-1.9-2.6-4.1-.2zM138.5 203c-.3.5.1 1 .9 1 .9 0 1.6-.5 1.6-1 0-.6-.4-1-.9-1-.6 0-1.3.4-1.6 1zM322.1 217.6c0 1.1.3 1.4.6.6.3-.7.2-1.6-.1-1.9-.3-.4-.6.2-.5 1.3zM327.2 218.2c-2.6 2.6.1 8.4 3.3 7.2 2.7-1.1 1.3-8.4-1.5-8.4-.3 0-1.1.5-1.8 1.2zM250.5 255c.3.5.8 1 1.1 1 .2 0 .4-.5.4-1 0-.6-.5-1-1.1-1-.5 0-.7.4-.4 1zM134 262.5c0 .5.5 1.7 1 2.5s1 1 1 .5c0-.6-.5-1.7-1-2.5s-1-1.1-1-.5zM136 269.7c0 .5.5 1.5 1 2.3.8 1.2 1 1.1 1-.8 0-1.2-.4-2.2-1-2.2-.5 0-1 .3-1 .7zM150.5 282c-.3.5-.1 1 .4 1 .6 0 1.1-.5 1.1-1 0-.6-.2-1-.4-1-.3 0-.8.4-1.1 1zM291.7 286.4c-.4 1-.1 1.3.8.9.8-.3 1.2-.9.9-1.4-.7-1.2-1.1-1.1-1.7.5zM290.8 315.9c.8.4 1.3 1.2 1.2 1.7-.1.5.4 1 1.1 1.3.8.2 1-.2.6-1.3-.4-1-.7-2-.7-2.2 0-.2-.8-.4-1.7-.4-1.4 0-1.5.2-.5.9zM305.5 331c.3.5.8 1 1.1 1 .2 0 .4-.5.4-1 0-.6-.5-1-1.1-1-.5 0-.7.4-.4 1zM300 338c-.8.5-1.1 1.3-.6 1.7.5.4 1.1.3 1.3-.4.2-.7 1-1 1.8-.7.7.3 1.6.1 2-.5.8-1.3-2.4-1.4-4.5-.1zM287.5 364.1c-.7 1 1 2.8 2.8 2.9 1.2 0 .8-1.7-.7-2.9-1.1-.9-1.6-.9-2.1 0zM292 364c0 1.3 1.8 2.2 2.4 1.1.3-.5-.1-1.1-.9-1.5-.8-.3-1.5-.1-1.5.4zM292.8 377.7c.7.3 1.6.2 1.9-.1.4-.3-.2-.6-1.3-.5-1.1 0-1.4.3-.6.6zM257.5 410c-.3.5.1 1 1 1s1.3-.5 1-1c-.3-.6-.8-1-1-1-.2 0-.7.4-1 1zM273.7 411.1c.7.7 1.5 1 1.8.7.3-.3-.2-.9-1.2-1.2-1.4-.6-1.5-.5-.6.5zM268.1 413.4c-1.3 1.5-.4 4.9 1.1 4 .5-.3.7-1.2.5-1.8-.4-.9.3-1.1 1.9-.8 2.7.5 3.3-1.2.8-2.2-2.3-.9-3-.8-4.3.8zM250.6 417.5c-.4 1.2-.2 1.3 1.3.6 1-.6 2.1-.7 2.5-.4.3.3.6.1.6-.5 0-1.8-3.7-1.5-4.4.3zM72 215.4c0 .2.8 1 1.8 1.7 1.5 1.3 1.6 1.2.3-.4s-2.1-2.1-2.1-1.3zM78.5 218.9c-.3.5.8 1.9 2.4 3 2.6 1.9 2.9 1.9 2.4.3-.5-2.2-4-4.5-4.8-3.3zM69 227.4c0 .9.5 1.6 1 1.6.6 0 1-.4 1-.9 0-.6-.4-1.3-1-1.6-.5-.3-1 .1-1 .9zM198.5 321c.3.5.8 1 1.1 1 .2 0 .4-.5.4-1 0-.6-.5-1-1.1-1-.5 0-.7.4-.4 1zM155 322.9c0 .5.5 1.3 1 1.6.6.3 1 .2 1-.4 0-.5-.4-1.3-1-1.6-.5-.3-1-.2-1 .4zM128 340c0 .5.7 1 1.5 1s1.5-.5 1.5-1c0-.6-.7-1-1.5-1s-1.5.4-1.5 1zM152 363c0 .5.5 1 1.1 1 .5 0 .7-.5.4-1-.3-.6-.8-1-1.1-1-.2 0-.4.4-.4 1zM334.7 3.1c-2.5 4.5-1 5 2.4 1 2.4-2.9 3-3.2 4.4-2.1 1.2 1 1.5 1 1.5-.4 0-1.1-.9-1.6-3.2-1.6-2.6 0-3.7.6-5.1 3.1zM464 5.3c0 4 .5 4.6 3.1 4 1.7-.5 4.9-4.9 4.9-6.8 0-.3-1.8-.5-4-.5-3.9 0-4 .1-4 3.3zM290.5 4c.3.5.2 1.8-.3 2.7-.8 1.4-.4 2.2 1.4 3.6 1.9 1.4 2.4 1.5 2.4.4 0-1.6-2.9-7.7-3.6-7.7-.3 0-.2.4.1 1zM23 15c0 .5.5 1 1.1 1 .5 0 .7-.5.4-1-.3-.6-.8-1-1.1-1-.2 0-.4.4-.4 1zM27 18.1c0 1.8 4 3.7 8 3.7 2.5 0 3.8-.3 3-.5-.8-.3-2.3-1.3-3.4-2.2-1.7-1.5-7.6-2.3-7.6-1zM44.5 23c1.7.4 4.1.8 5.5.8 2.2 0 2.2-.1-.5-.8-1.6-.4-4.1-.8-5.5-.8-2.2 0-2.2.1.5.8zM54.8 24.7c.7.3 1.6.2 1.9-.1.4-.3-.2-.6-1.3-.5-1.1 0-1.4.3-.6.6zM16 43.1c0 .5.5.7 1 .4.6-.3 1-.8 1-1.1 0-.2-.4-.4-1-.4-.5 0-1 .5-1 1.1zM19 43c0 .5.5 1 1 1 .6 0 1-.5 1-1 0-.6-.4-1-1-1-.5 0-1 .4-1 1zM404.7 45.1c.7.7 1.5 1 1.8.7.3-.3-.2-.9-1.2-1.2-1.4-.6-1.5-.5-.6.5zM409.2 57.3c-.6.7-1.6 2.5-2.2 4.1-.5 1.5-1.8 3-2.9 3.3-1.3.3-1.7 1.1-1.3 2.8.2 1.4-.5 3.5-1.9 5.4l-2.2 3.1 1.9 3.5c2.8 5.3 3.7 5.8 6.6 3.5 1.7-1.3 2.8-3.4 3.2-6.1.5-3.1 1.7-5.2 4.3-7.7 3.4-3.1 3.5-3.6 2-4.7-2.3-1.6-2.1-4.2.3-5.5 1.1-.6 2-1.6 2-2.2 0-.9-.3-.9-1.2 0-1.5 1.5-4.8 1.6-4.8.2 0-1.4-2.6-1.2-3.8.3zM497 89.5l-2.3 2.5h2.6c2.2 0 2.7-.5 2.7-2.5 0-1.4-.1-2.5-.3-2.5-.2 0-1.4 1.1-2.7 2.5zM471.6 103.9c-.3.5-.5 2.1-.4 3.5.2 2.4.3 2.4 2 .9 2.2-1.9 2.4-5.3.4-5.3-.8 0-1.7.4-2 .9zM442.5 107.9c-1.1.5-2.6.6-3.2.4-.7-.3-2.8.5-4.8 1.7-3.4 2.1-3.5 2.1-6.4.4-2.9-1.7-3.1-1.7-5.1.1-2.6 2.3-2.6 4.5.1 4.5 1.1 0 5.8-.7 10.5-1.7 6.6-1.3 8.7-2.1 9.9-4 .9-1.2 1.4-2.3 1.3-2.2-.2 0-1.2.4-2.3.8zM450 113.5c0 3.3 5.4 4.7 6.3 1.6.4-1.6-.2-2-2.9-2.3-2-.2-3.4 0-3.4.7zM454.5 134c-.3.5-.1 1 .4 1 .6 0 1.1-.5 1.1-1 0-.6-.2-1-.4-1-.3 0-.8.4-1.1 1zM30.5 137c-.8 1.3.3 5 1.5 5 1.5 0 2.2-1.9 1.5-4-.7-2.2-2-2.6-3-1zM441 147c0 .5.5 1 1 1 .6 0 1-.5 1-1 0-.6-.4-1-1-1-.5 0-1 .4-1 1zM62.3 156.7c.9.9 1.9 1.4 2.3 1.1 1-1-.6-2.8-2.4-2.8-1.5 0-1.5.1.1 1.7zM.2 161c0 1.4.2 1.9.5 1.2.2-.6.2-1.8 0-2.5-.3-.6-.5-.1-.5 1.3zM23 175.1c0 .5.5.7 1 .4.6-.3 1-.8 1-1.1 0-.2-.4-.4-1-.4-.5 0-1 .5-1 1.1zM395 189.9c0 .5 1.3 1.4 2.8 2 2.3 1 3.5.9 5.7-.1l2.9-1.3-3-.6c-4.5-1-8.4-1-8.4 0zM446.1 203.7c-1.5 1.7.3 3.8 3.9 4.5 2.2.4 2.5.1 2.5-2.3 0-2.2-.5-2.8-2.6-3.1-1.4-.2-3.1.2-3.8.9zM5 213.4c0 .8.5 1.8 1 2.1.6.3 1-.1 1-.9s-.4-1.8-1-2.1c-.5-.3-1 .1-1 .9zM397 242c0 1.6-.6 3.3-1.4 3.7-.7.4-1.7 2.3-2.1 4.2-.6 2.9-.5 3.3 1 2.8.9-.4 2.3-.7 3-.7.7 0 2-1.1 2.9-2.4 1.5-2.4 1.5-2.5-.5-2.1-1.7.4-1.9.2-.9-1 .7-.8 1.9-1.5 2.6-1.5 2.1 0 .1-4.2-2.4-5.1-1.9-.7-2.2-.5-2.2 2.1zM434.3 254.5c-.8 2.2-.4 2.3 5.6 1.8l5.3-.6-3.8-1.3c-5-1.8-6.3-1.7-7.1.1zM413.5 264c-.3.5-1.9 1-3.6 1-2.6 0-3.4.9-3 3.4.5 2.4-1.2 4.6-3.6 4.6-1.5 0-2.3.5-2 1.2.2.7 1.3 1.1 2.3.9 1-.2 3.3-.4 5.1-.6 1.7-.1 4.6-1.4 6.3-2.9 3-2.5 3.1-2.8 2-5.6-1.3-3.1-2.4-3.7-3.5-2zM393 279.5c-1 1.2-1 1.5.3 1.5 1.9 0 3.1-1.6 1.8-2.4-.5-.3-1.4.1-2.1.9zM430 289.2c0 .9.5 2 1 2.3 1.3.8 1.3-.5 0-2.5-.8-1.3-1-1.3-1 .2zM3.6 327.5c-.5 1.4.2 2.7 2.3 4.9 2.5 2.5 3.2 2.7 4.6 1.6 1.2-1 1.3-1.6.4-2.6-.6-.8-1.7-1.4-2.4-1.4s-1.9-1-2.7-2.2c-1.4-2-1.5-2.1-2.2-.3zM27.9 343c-1.8 1.5-2 1.9-.8 2 .9 0 2.4-.9 3.4-2 2.3-2.6.4-2.6-2.6 0zM2.8 351.8c-2.4 1.5-2.8 2.3-2.8 6.5 0 4.4.1 4.6 1.9 3.6 2.3-1.5 5.1-.5 5.8 2.1.4 1.6 1.1 1.9 2.7 1.4 3-.9 3.3-1.3 4-7.2l.7-5.2h-2.9c-1.6 0-3.5-.7-4.2-1.5-1.5-1.8-1.7-1.8-5.2.3zM22.4 362.6c.1 2.9 1.2 3.2 1.9.5.3-1.1-.1-2.2-.8-2.5-.8-.3-1.2.4-1.1 2zM0 375c0 1.1.9 2.4 2.1 3 3.1 1.7 3.3.5.5-2.3-2.3-2.4-2.6-2.4-2.6-.7zM42.2 375.9c.2.7.7 1.2 1.1 1.2 1.2-.1.9-1.5-.3-2-.7-.2-1.1.2-.8.8zM32.4 376.8c-2 1.3-2.2 5-.5 6.6 2.2 2 3.1 1.1 3.1-3 0-3.5-.9-4.7-2.6-3.6zM493 406.9c0 2.5.6 2.7 1.3.6.4-.8.2-1.7-.3-2-.6-.4-1 .3-1 1.4zM24 463c0 .6.1 1.3.3 1.7.3 1 3.7 1.1 3.7.1 0-.4.1-1.1.3-1.5.1-.3-.8-.8-2-.9-1.3-.2-2.3.1-2.3.6zM14.5 471.5c-1.1 1.3-2.7 2.4-3.6 2.5-1.2 0-1.5.7-1.1 2.5.4 2.1.9 2.4 2.6 1.9 1.1-.3 2.5-1 3-1.5.6-.5 1.8-.9 2.9-.9 1 0 1.5-.4 1.2-1-.4-.6.3-.9 1.7-.7 1.4.1 2.3-.4 2.6-1.6.3-1.3-.3-1.7-2.7-1.7-1.7 0-3.1-.5-3.1-1 0-1.7-1.4-1.1-3.5 1.5zM5 478c0 1.9 1.1 2.6 2.3 1.4.8-.8-.3-3.4-1.4-3.4-.5 0-.9.9-.9 2zM6 485c0 .6.7 1.3 1.6 1.7.9.3 2.8 1.7 4.2 3 1.6 1.5 2.9 2 3.5 1.4 1.3-1.3 0-4.4-1.7-3.8-.7.3-2.7-.3-4.5-1.4-1.7-1-3.1-1.4-3.1-.9z"/></svg>